<svg width="46" height="44" viewBox="0 0 46 44" fill="none" xmlns="http://www.w3.org/2000/svg" xmlns:xlink="http://www.w3.org/1999/xlink">
<path d="M42.034,3.8L37.258,3.8L37.258,0L35.577,0L35.577,3.8L31.232,3.8L31.232,0L29.551,0L29.551,3.8L14.522,3.8L14.522,0L12.842,0L12.842,3.8L8.496,3.8L8.496,0L6.815,0L6.815,3.8L2.057,3.8C1.787,3.799 1.52,3.852 1.271,3.955C1.021,4.058 0.795,4.209 0.604,4.4C0.413,4.591 0.261,4.818 0.157,5.068C0.054,5.318 0,5.586 0,5.857L0,41.025C-0.001,41.296 0.052,41.565 0.155,41.816C0.259,42.067 0.41,42.295 0.601,42.486C0.792,42.679 1.019,42.831 1.269,42.935C1.519,43.038 1.787,43.091 2.057,43.091L42.034,43.091C42.305,43.091 42.573,43.038 42.823,42.935C43.072,42.831 43.299,42.679 43.491,42.486C43.682,42.295 43.833,42.067 43.937,41.816C44.04,41.565 44.093,41.296 44.092,41.025L44.092,5.857C44.092,5.586 44.038,5.318 43.934,5.068C43.831,4.818 43.679,4.591 43.488,4.4C43.297,4.209 43.07,4.058 42.821,3.955C42.571,3.852 42.304,3.799 42.034,3.8L42.034,3.8ZM42.439,41.025C42.438,41.132 42.395,41.235 42.319,41.311C42.244,41.387 42.141,41.43 42.034,41.431L2.057,41.431C1.95,41.43 1.848,41.387 1.772,41.311C1.697,41.235 1.654,41.132 1.653,41.025L1.653,13.53L42.439,13.53L42.439,41.025ZM42.439,11.833L1.653,11.833L1.653,5.856C1.654,5.75 1.697,5.648 1.773,5.574C1.849,5.5 1.951,5.459 2.057,5.46L6.815,5.46L6.815,8.568L8.496,8.568L8.496,5.46L12.841,5.46L12.841,8.568L14.522,8.568L14.522,5.46L29.551,5.46L29.551,8.568L31.232,8.568L31.232,5.46L35.576,5.46L35.576,8.568L37.258,8.568L37.258,5.46L42.034,5.46C42.14,5.459 42.242,5.5 42.318,5.574C42.394,5.648 42.437,5.75 42.439,5.856L42.439,11.833Z" fill="#4E4E4E"/>
<rect  x="31.274" y="20.407" width="6.006" height="1.691" fill="#767676"/>
<rect  x="19.55" y="20.333" width="6.006" height="1.691" fill="#767676"/>
<path d="M10.735,17.995C11.366,17.995 11.982,18.183 12.506,18.534C13.03,18.886 13.438,19.386 13.68,19.97C13.921,20.555 13.984,21.199 13.861,21.819C13.738,22.44 13.434,23.01 12.989,23.457C12.543,23.905 11.975,24.21 11.357,24.333C10.739,24.457 10.098,24.393 9.516,24.151C8.934,23.909 8.436,23.499 8.086,22.973C7.735,22.446 7.548,21.828 7.548,21.195C7.549,20.347 7.886,19.533 8.483,18.933C9.08,18.334 9.89,17.996 10.735,17.995L10.735,17.995ZM10.735,16.427C9.796,16.427 8.878,16.707 8.097,17.231C7.316,17.755 6.708,18.499 6.348,19.37C5.989,20.242 5.895,21.2 6.078,22.125C6.262,23.05 6.714,23.9 7.378,24.566C8.042,25.233 8.888,25.687 9.809,25.871C10.73,26.055 11.685,25.961 12.553,25.6C13.42,25.239 14.162,24.628 14.684,23.844C15.205,23.06 15.484,22.138 15.484,21.195C15.484,19.93 14.983,18.718 14.093,17.824C13.203,16.93 11.995,16.427 10.735,16.427L10.735,16.427Z" fill="#767676"/>
<rect  x="9.504" y="20.337" width="2.505" height="1.691" fill="#767676"/>
<rect  x="31.274" y="25.941" width="6.006" height="1.691" fill="#767676"/>
<rect  x="19.55" y="25.867" width="6.006" height="1.691" fill="#767676"/>
<rect  x="31.274" y="31.475" width="6.006" height="1.691" fill="#767676"/>
<rect  x="19.55" y="31.4" width="6.006" height="1.691" fill="#767676"/>
<rect  x="7.701" y="31.486" width="6.006" height="1.691" fill="#767676"/>
</svg>
