<svg width="46" height="44" viewBox="0 0 46 44" fill="none" xmlns="http://www.w3.org/2000/svg" xmlns:xlink="http://www.w3.org/1999/xlink">
<path d="M42.035,3.8L37.258,3.8L37.258,0L35.577,0L35.577,3.8L31.232,3.8L31.232,0L29.551,0L29.551,3.8L14.523,3.8L14.523,0L12.842,0L12.842,3.8L8.497,3.8L8.497,0L6.816,0L6.816,3.8L2.058,3.8C1.788,3.799 1.521,3.852 1.272,3.955C1.022,4.058 0.795,4.209 0.604,4.4C0.413,4.591 0.261,4.818 0.158,5.068C0.054,5.318 0,5.586 0,5.857L0,41.025C-0.001,41.296 0.052,41.565 0.156,41.816C0.259,42.067 0.41,42.295 0.602,42.486C0.793,42.679 1.02,42.831 1.269,42.935C1.519,43.038 1.787,43.091 2.058,43.091L42.035,43.091C42.305,43.091 42.573,43.038 42.823,42.935C43.073,42.831 43.3,42.679 43.491,42.486C43.682,42.295 43.834,42.067 43.937,41.816C44.04,41.565 44.093,41.296 44.092,41.025L44.092,5.857C44.092,5.586 44.038,5.318 43.935,5.068C43.831,4.818 43.679,4.591 43.488,4.4C43.297,4.209 43.07,4.058 42.821,3.955C42.572,3.852 42.305,3.799 42.035,3.8L42.035,3.8ZM42.439,41.025C42.438,41.132 42.395,41.235 42.32,41.311C42.244,41.387 42.142,41.43 42.035,41.431L2.058,41.431C1.951,41.43 1.848,41.387 1.773,41.311C1.697,41.235 1.654,41.132 1.653,41.025L1.653,13.53L42.439,13.53L42.439,41.025ZM42.439,11.833L1.653,11.833L1.653,5.856C1.655,5.75 1.698,5.648 1.774,5.574C1.85,5.5 1.952,5.459 2.057,5.46L6.816,5.46L6.816,8.568L8.497,8.568L8.497,5.46L12.842,5.46L12.842,8.568L14.523,8.568L14.523,5.46L29.551,5.46L29.551,8.568L31.232,8.568L31.232,5.46L35.577,5.46L35.577,8.568L37.258,8.568L37.258,5.46L42.035,5.46C42.141,5.459 42.243,5.5 42.319,5.574C42.394,5.648 42.438,5.75 42.439,5.856L42.439,11.833Z" fill="#4E4E4E"/>
<rect  x="31.274" y="20.407" width="6.006" height="1.691" fill="#4E4E4E"/>
<rect  x="19.551" y="20.333" width="6.006" height="1.691" fill="#4E4E4E"/>
<path d="M10.736,17.995C11.366,17.995 11.982,18.183 12.506,18.534C13.031,18.886 13.439,19.386 13.68,19.97C13.921,20.555 13.984,21.199 13.862,21.819C13.739,22.44 13.435,23.01 12.989,23.457C12.544,23.905 11.976,24.21 11.357,24.333C10.74,24.457 10.099,24.393 9.516,24.151C8.934,23.909 8.436,23.499 8.086,22.973C7.736,22.446 7.549,21.828 7.549,21.195C7.55,20.347 7.886,19.533 8.483,18.933C9.081,18.334 9.891,17.996 10.736,17.995L10.736,17.995ZM10.736,16.427C9.797,16.427 8.879,16.707 8.098,17.231C7.317,17.755 6.708,18.499 6.349,19.37C5.989,20.242 5.895,21.2 6.079,22.125C6.262,23.05 6.714,23.9 7.378,24.566C8.042,25.233 8.889,25.687 9.81,25.871C10.73,26.055 11.685,25.961 12.553,25.6C13.421,25.239 14.162,24.628 14.684,23.844C15.206,23.06 15.484,22.138 15.484,21.195C15.484,19.93 14.984,18.718 14.093,17.824C13.203,16.93 11.995,16.427 10.736,16.427L10.736,16.427Z" fill="#4E4E4E"/>
<rect  x="9.504" y="20.337" width="2.505" height="1.691" fill="#4E4E4E"/>
<rect  x="31.274" y="25.941" width="6.006" height="1.691" fill="#4E4E4E"/>
<rect  x="19.551" y="25.867" width="6.006" height="1.691" fill="#4E4E4E"/>
<rect  x="31.274" y="31.475" width="6.006" height="1.691" fill="#4E4E4E"/>
<rect  x="19.551" y="31.4" width="6.006" height="1.691" fill="#4E4E4E"/>
<rect  x="7.701" y="31.486" width="6.006" height="1.691" fill="#4E4E4E"/>
</svg>
