<svg width="24" height="98" viewBox="0 0 24 98" fill="none" xmlns="http://www.w3.org/2000/svg" xmlns:xlink="http://www.w3.org/1999/xlink">
<path d="M21.182,0C20.286,0 19.553,0.733 19.553,1.629L19.553,24.461C19.553,25.364 18.825,26.091 17.924,26.091C17.021,26.091 16.294,25.362 16.294,24.461L16.294,1.629C16.294,0.733 15.562,0 14.665,0C13.768,0 13.036,0.733 13.036,1.629L13.036,24.461C13.036,25.364 12.303,26.091 11.407,26.091C10.5,26.091 9.777,25.362 9.777,24.461L9.777,1.629C9.777,0.733 9.045,0 8.148,0C7.247,0 6.519,0.733 6.519,1.629L6.519,24.461C6.514,25.364 5.786,26.091 4.889,26.091C3.982,26.091 3.26,25.362 3.26,24.461L3.26,1.629C3.26,0.733 2.527,0 1.626,0C0.73,0 0,0.733 0,1.629L0,31.915C0,35.04 2.738,37.693 6.522,38.697L6.522,92.942C6.522,95.632 8.721,97.831 11.414,97.831C14.101,97.831 16.306,95.632 16.306,92.942L16.299,38.697C20.079,37.693 22.821,35.04 22.821,31.915L22.821,1.629C22.812,0.733 22.079,0 21.182,0L21.182,0Z" fill="#596B86"/>
</svg>
