<svg width="36" height="22" viewBox="0 0 36 22" fill="none" xmlns="http://www.w3.org/2000/svg" xmlns:xlink="http://www.w3.org/1999/xlink">
<path d="M2.522,0C2.191,0 1.878,0.069 1.589,0.184L16.221,12.635C16.861,13.181 17.575,13.181 18.218,12.635L32.862,0.171C32.578,0.061 32.267,0 31.943,0L2.522,0ZM0.026,2.154C0.009,2.273 0,2.398 0,2.522L0,19.334C0,20.731 1.125,21.856 2.522,21.856L31.943,21.856C33.34,21.856 34.465,20.731 34.465,19.334L34.465,2.522C34.465,2.398 34.456,2.273 34.438,2.154L19.859,14.553C18.348,15.838 16.091,15.84 14.579,14.553L0.026,2.154Z" fill="#7587A0"/>
</svg>
