<svg width="16" height="100" viewBox="0 0 16 100" fill="none" xmlns="http://www.w3.org/2000/svg" xmlns:xlink="http://www.w3.org/1999/xlink">
<path d="M15.991,23.008L15.991,19.748C15.991,19.279 15.947,18.841 15.934,18.378C15.939,18.287 15.987,18.209 15.987,18.117L15.987,5.075C15.987,2.382 13.786,0.183 11.095,0.183L7.833,0.183C3.353,0.183 -0.315,8.99 -0.315,19.748L-0.315,49.264C2.881,49.911 5.398,52.423 6.047,55.622L6.207,55.622L6.207,93.124C6.207,95.814 8.406,98.013 11.093,98.013L11.103,98.013C13.793,98.013 16,95.814 16,93.124L15.998,55.621L15.998,23.007L15.991,23.008Z" fill="#596B86"/>
</svg>
