<svg width="38" height="34" viewBox="0 0 38 34" fill="none" xmlns="http://www.w3.org/2000/svg" xmlns:xlink="http://www.w3.org/1999/xlink">
<path d="M12.376,14.818C12.376,15.989 11.426,16.94 10.254,16.94C9.082,16.94 8.132,15.99 8.132,14.818C8.132,13.646 9.082,12.695 10.254,12.695C11.426,12.695 12.376,13.646 12.376,14.818Z" fill="#DA8907"/>
<path d="M21.058,14.818C21.058,15.989 20.108,16.94 18.936,16.94C17.764,16.94 16.814,15.99 16.814,14.818C16.814,13.646 17.764,12.695 18.936,12.695C20.108,12.695 21.058,13.646 21.058,14.818Z" fill="#DA8907"/>
<path d="M29.741,14.818C29.741,15.989 28.791,16.94 27.619,16.94C26.447,16.94 25.497,15.99 25.497,14.818C25.497,13.646 26.447,12.695 27.619,12.695C28.791,12.695 29.741,13.646 29.741,14.818Z" fill="#DA8907"/>
<path d="M1.303,33.764C1.13,33.764 0.956,33.729 0.79,33.659C0.311,33.454 0,32.984 0,32.462L0.001,7.137C0.001,3.202 3.202,0 7.137,0L30.863,0C34.798,0 38,3.202 38,7.137L38,21.06C38,24.995 34.798,28.196 30.863,28.196L7.659,28.196L2.203,33.403C1.956,33.64 1.632,33.764 1.303,33.764L1.303,33.764ZM7.137,2.605C4.639,2.605 2.606,4.638 2.606,7.137L2.606,29.418L6.239,25.952C6.481,25.72 6.803,25.592 7.138,25.592L30.863,25.592C33.362,25.592 35.395,23.56 35.395,21.061L35.395,7.137C35.395,4.638 33.362,2.605 30.863,2.605L7.137,2.605Z" fill="#DA8907"/>
</svg>
