<svg width="32" height="30" viewBox="0 0 32 30" fill="none" xmlns="http://www.w3.org/2000/svg" xmlns:xlink="http://www.w3.org/1999/xlink">
<path d="M31.58,23.861L23.49,17.989C22.977,17.615 22.463,17.739 22.078,18.114L21.436,18.739L19.382,20.738C18.74,21.362 17.712,21.362 16.942,20.738L9.365,14.117C8.98,13.867 8.851,13.367 8.851,12.867C8.851,12.368 8.98,11.993 9.365,11.618L11.548,9.494C11.933,9.12 11.933,8.495 11.676,8.12L6.155,0.375C6.027,0.25 5.77,0 5.385,0C5.128,0 4.743,0 4.486,0.25L1.275,2.748C-0.009,3.748 -0.266,5.372 0.248,6.871C4.486,17.864 13.603,26.11 25.16,29.857C26.444,30.232 27.985,29.857 28.884,28.858C29.526,28.109 31.067,26.235 31.324,25.985C31.452,25.86 31.581,25.61 31.709,25.485C31.966,25.235 31.966,24.985 31.966,24.611C32.094,24.236 31.837,23.986 31.58,23.861L31.58,23.861Z" clip-rule="evenodd" fill-rule="evenodd" fill="#7587A0"/>
</svg>
