<svg width="30" height="30" viewBox="0 0 30 30" fill="none" xmlns="http://www.w3.org/2000/svg" xmlns:xlink="http://www.w3.org/1999/xlink">
<path d="M14.021,-0.612C5.956,-0.612 -0.583,5.967 -0.583,14.08C-0.583,21.446 4.811,27.529 11.837,28.591L11.837,17.974L8.224,17.974L8.224,14.112L11.837,14.112L11.837,11.542C11.837,7.287 13.898,5.42 17.413,5.42C19.095,5.42 19.987,5.546 20.408,5.603L20.408,8.973L18.01,8.973C16.518,8.973 15.997,10.398 15.997,12.001L15.997,14.112L20.37,14.112L19.777,17.974L15.997,17.974L15.997,28.622C23.125,27.65 28.624,21.519 28.624,14.08C28.624,5.967 22.086,-0.612 14.021,-0.612Z" fill="#00B2FF"/>
</svg>
