<svg width="34" height="28" viewBox="0 0 34 28" fill="none" xmlns="http://www.w3.org/2000/svg" xmlns:xlink="http://www.w3.org/1999/xlink">
<path d="M33.114,2.62C31.927,3.172 30.65,3.541 29.303,3.715C30.673,2.861 31.726,1.499 32.22,-0.11C30.939,0.679 29.52,1.258 28.01,1.564C26.804,0.221 25.084,-0.612 23.178,-0.612C19.517,-0.612 16.55,2.478 16.55,6.287C16.55,6.826 16.61,7.351 16.723,7.861C11.216,7.57 6.332,4.82 3.064,0.647C2.49,1.666 2.167,2.861 2.167,4.121C2.167,6.516 3.334,8.625 5.114,9.867C4.028,9.832 3.005,9.515 2.109,9.005C2.109,9.026 2.109,9.057 2.109,9.086C2.109,12.433 4.395,15.22 7.424,15.855C6.87,16.014 6.285,16.103 5.682,16.103C5.254,16.103 4.837,16.052 4.433,15.975C5.277,18.711 7.724,20.71 10.623,20.769C8.354,22.616 5.498,23.723 2.391,23.723C1.854,23.723 1.33,23.691 0.811,23.625C3.745,25.577 7.23,26.721 10.971,26.721C23.16,26.721 29.828,16.206 29.828,7.084C29.828,6.786 29.819,6.488 29.806,6.194C31.107,5.229 32.228,4.011 33.114,2.62Z" fill="#00B2FF"/>
</svg>
