<svg width="38" height="42" viewBox="0 0 38 42" fill="none" xmlns="http://www.w3.org/2000/svg" xmlns:xlink="http://www.w3.org/1999/xlink">
<path d="M35.501,30.344L34.423,29.688C36.639,26.527 37.82,22.826 37.82,18.91C37.82,8.483 29.337,0 18.91,0C17.015,0 15.156,0.277 13.39,0.822C5.381,3.259 0,10.528 0,18.91C0,21.945 0.698,24.843 2.075,27.519C5.323,33.872 11.773,37.819 18.909,37.819C20.52,37.819 22.099,37.601 23.629,37.205C23.628,37.216 23.624,37.228 23.624,37.24L23.624,41.128C23.624,41.463 23.815,41.767 24.116,41.913C24.237,41.97 24.366,42 24.496,42C24.689,42 24.88,41.936 25.037,41.812L28.07,39.414L31.104,41.812C31.366,42.02 31.725,42.058 32.024,41.913C32.326,41.766 32.516,41.462 32.516,41.128L32.516,37.24C32.516,36.945 32.367,36.671 32.12,36.51L30.467,35.433L30.596,33.084L34.801,34.311C35.063,34.389 35.349,34.336 35.568,34.171C35.788,34.008 35.917,33.749 35.917,33.474L35.917,31.09C35.918,30.785 35.76,30.502 35.5,30.344L35.501,30.344ZM36.076,18.911C36.076,22.502 34.982,25.893 32.932,28.78L31.02,27.615C30.919,27.518 30.856,27.381 30.852,27.309C30.892,26.708 31.165,21.413 28.29,20.67C28.147,20.632 27.997,20.632 27.854,20.67C26.731,20.96 26.093,21.945 25.729,23.068L23.635,22.474L23.018,22.289C20.891,21.661 18.883,21.067 18.358,19.029C18.17,18.3 18.273,17.491 18.628,16.916C18.9,16.477 19.288,16.199 19.786,16.091C19.933,16.059 20.096,16.043 20.271,16.043C24.633,16.043 26.68,15.114 28.075,9.361C28.377,8.119 29.019,6.922 29.95,5.784C33.691,8.935 36.076,13.647 36.076,18.911L36.076,18.911ZM13.271,2.71C14.378,4.563 14.891,6.107 14.676,6.997C14.599,7.312 14.438,7.526 14.154,7.692L13.883,7.847C10.818,9.607 5.689,12.551 8.631,17.825C9.657,19.66 9.562,21.737 8.373,23.528C7.215,25.272 5.305,26.31 3.41,26.272C2.308,23.968 1.743,21.497 1.743,18.911C1.744,11.527 6.351,5.106 13.271,2.71L13.271,2.71ZM4.338,27.971C6.484,27.703 8.531,26.44 9.825,24.492C11.367,22.174 11.489,19.363 10.154,16.974C8.206,13.483 10.955,11.538 14.751,9.358L15.026,9.2C15.719,8.798 16.184,8.177 16.369,7.405C16.685,6.099 16.22,4.349 14.994,2.197C16.265,1.899 17.577,1.744 18.91,1.744C22.488,1.744 25.811,2.847 28.565,4.727C27.488,6.055 26.74,7.467 26.38,8.949C25.132,14.093 23.693,14.299 20.269,14.299C19.968,14.299 19.679,14.328 19.413,14.387C18.45,14.597 17.664,15.154 17.143,16.001C16.54,16.979 16.362,18.273 16.668,19.463C17.438,22.459 20.257,23.293 22.523,23.961L25.366,24.776C25.22,25.971 25.275,27.014 25.291,27.231C25.287,27.374 25.225,27.518 25.124,27.615L20.642,30.346C20.382,30.504 20.225,30.786 20.225,31.09L20.225,33.475C20.225,33.748 20.354,34.008 20.573,34.172C20.792,34.337 21.077,34.39 21.34,34.312L25.544,33.085L25.635,34.723L25.198,34.883C23.197,35.675 21.08,36.077 18.911,36.077C12.914,36.076 7.456,33.002 4.338,27.971L4.338,27.971ZM34.176,32.313L30.033,31.103C29.778,31.027 29.502,31.075 29.285,31.229C29.068,31.383 28.934,31.628 28.919,31.893L28.701,35.842C28.683,36.152 28.833,36.45 29.095,36.62L30.775,37.714L30.775,39.331L28.613,37.622C28.454,37.497 28.263,37.434 28.072,37.434C27.881,37.434 27.69,37.497 27.531,37.622L25.37,39.33L25.371,37.714L27.05,36.62C27.311,36.45 27.462,36.152 27.443,35.841L27.226,31.893C27.211,31.627 27.076,31.383 26.859,31.228C26.642,31.074 26.366,31.027 26.111,31.103L21.969,32.312L21.969,31.579L26.094,29.065C26.127,29.046 26.158,29.022 26.189,28.999C26.703,28.581 27.02,27.935 27.034,27.191C26.924,25.533 27.189,23.027 28.072,22.454C28.956,23.027 29.221,25.538 29.11,27.267C29.124,27.934 29.44,28.581 29.956,28.999C29.986,29.022 30.017,29.046 30.05,29.066L34.176,31.579L34.176,32.313Z" fill="#DA8907"/>
</svg>
