<svg width="36" height="32" viewBox="0 0 36 32" fill="none" xmlns="http://www.w3.org/2000/svg" xmlns:xlink="http://www.w3.org/1999/xlink">
<path d="M4.339,23.499C4.339,22.932 4.565,22.389 4.965,21.988C5.366,21.588 5.909,21.363 6.475,21.363C6.851,21.365 7.219,21.465 7.543,21.655C7.869,21.843 8.14,22.114 8.327,22.44C8.515,22.767 8.613,23.136 8.611,23.513C8.611,23.613 8.604,23.713 8.59,23.812C8.494,24.47 8.099,25.046 7.522,25.375C7.198,25.564 6.829,25.664 6.454,25.663C5.886,25.657 5.344,25.426 4.947,25.02C4.551,24.614 4.332,24.066 4.34,23.499L4.339,23.499ZM31.885,9.024L23.59,9.024C23.353,9.568 23.047,10.079 22.679,10.544C21.14,12.516 18.677,13.533 16.196,13.221C13.714,12.91 11.579,11.315 10.576,9.024L2.292,9.024C1.685,9.025 1.103,9.267 0.674,9.696C0.244,10.125 0.002,10.706 0,11.313L0,13.381L34.174,13.381L34.174,11.313C34.173,10.707 33.932,10.125 33.502,9.696C33.073,9.267 32.492,9.025 31.885,9.024L31.885,9.024ZM9.661,23.976C9.661,24.079 9.626,24.186 9.601,24.289L9.601,24.289C9.599,24.308 9.599,24.327 9.601,24.346C9.567,24.466 9.526,24.585 9.48,24.702C9.468,24.732 9.455,24.762 9.441,24.791C9.402,24.88 9.359,24.969 9.309,25.057L9.27,25.132C9.206,25.239 9.138,25.339 9.067,25.435L9.014,25.499C8.978,25.545 8.946,25.592 8.907,25.634L8.907,25.634C8.998,25.64 9.089,25.64 9.181,25.634C9.949,25.634 10.659,25.224 11.043,24.559C11.427,23.894 11.427,23.074 11.043,22.409C10.659,21.744 9.949,21.334 9.181,21.334C9.089,21.329 8.998,21.329 8.907,21.334C8.942,21.373 8.974,21.416 9.006,21.459L9.071,21.537L9.07,21.537C9.141,21.632 9.206,21.731 9.266,21.832C9.266,21.861 9.298,21.89 9.312,21.918C9.36,22.003 9.402,22.089 9.44,22.174C9.44,22.206 9.469,22.235 9.479,22.267L9.48,22.267C9.527,22.383 9.568,22.502 9.601,22.623C9.599,22.644 9.599,22.666 9.601,22.687C9.626,22.789 9.647,22.892 9.661,22.997C9.663,23.031 9.663,23.065 9.661,23.1C9.694,23.35 9.694,23.604 9.661,23.854C9.664,23.895 9.664,23.935 9.661,23.976L9.661,23.976ZM0,16.717L34.174,16.717L34.174,14.446L0,14.446L0,16.717ZM0,17.785L34.174,17.785L34.174,28.443C34.176,29.051 33.935,29.635 33.506,30.066C33.077,30.497 32.493,30.739 31.885,30.739L2.292,30.739C1.684,30.739 1.1,30.497 0.67,30.066C0.24,29.636 -0.001,29.052 0,28.443L0,17.785ZM16.076,22.157C16.076,22.451 16.315,22.691 16.61,22.691L30.372,22.691C30.667,22.691 30.906,22.451 30.906,22.157C30.906,21.862 30.667,21.623 30.372,21.623L16.61,21.623C16.315,21.623 16.076,21.862 16.076,22.157ZM16.076,24.841L16.076,24.841C16.076,25.136 16.315,25.375 16.61,25.375L30.372,25.375C30.667,25.375 30.906,25.136 30.906,24.841C30.906,24.546 30.667,24.307 30.372,24.307L16.61,24.307C16.315,24.307 16.076,24.546 16.076,24.841L16.076,24.841ZM3.261,23.499L3.261,23.499C3.261,24.348 3.599,25.163 4.199,25.764C4.8,26.365 5.615,26.703 6.465,26.703C6.936,26.709 7.403,26.611 7.832,26.414C8.25,26.612 8.707,26.715 9.17,26.717C10.32,26.717 11.383,26.103 11.957,25.108C12.532,24.112 12.532,22.885 11.957,21.89C11.382,20.894 10.32,20.281 9.17,20.281C8.706,20.282 8.248,20.385 7.828,20.583C7.41,20.385 6.953,20.282 6.49,20.281C5.635,20.277 4.815,20.615 4.21,21.219C3.606,21.823 3.268,22.644 3.272,23.499L3.261,23.499ZM23.117,6.177C23.066,8.296 21.906,10.232 20.062,11.277C18.218,12.322 15.96,12.322 14.116,11.277C12.273,10.232 11.112,8.296 11.061,6.177C11.021,4.552 11.639,2.981 12.774,1.818C13.909,0.656 15.464,0 17.089,0C18.714,0 20.27,0.656 21.405,1.818C22.54,2.981 23.157,4.552 23.118,6.177L23.117,6.177ZM19.885,4.585L19.885,4.585C19.786,4.485 19.65,4.428 19.508,4.428C19.366,4.428 19.23,4.485 19.131,4.585L16.375,7.334L15.048,6.006L15.048,6.006C14.838,5.797 14.5,5.798 14.291,6.008C14.083,6.217 14.084,6.556 14.293,6.764L15.998,8.466C16.097,8.568 16.234,8.624 16.375,8.622C16.517,8.623 16.653,8.566 16.753,8.466L19.885,5.333C20.092,5.124 20.092,4.788 19.885,4.578L19.885,4.585Z" fill="#4C6487"/>
</svg>
